<svg width="28" height="32" viewBox="0 0 28 32" fill="none" xmlns="http://www.w3.org/2000/svg">
<path d="M15.6107 22.6581L26.6788 13.847L26.9511 13.6313C28.0697 12.7455 28.2584 11.1207 27.3727 10.0022C27.2501 9.8473 27.1101 9.707 26.9554 9.58403L15.6109 0.561495C14.6695 -0.187165 13.3361 -0.187165 12.3947 0.561495L1.04235 9.59021C-0.0743309 10.4783 -0.259621 12.1035 0.628489 13.2202C0.74986 13.3728 0.888118 13.5112 1.04062 13.6327L1.3096 13.847L12.394 22.6592C13.3357 23.4078 14.6695 23.4074 15.6107 22.6581Z" fill="#6337BE"/>
<path opacity="0.5" fill-rule="evenodd" clip-rule="evenodd" d="M12.3776 27.1332L2.52539 19.3006C1.85303 18.7661 0.874654 18.8778 0.340123 19.5502C0.336011 19.5554 0.331933 19.5606 0.327888 19.5658C-0.201587 20.2495 -0.076556 21.233 0.607152 21.7624C0.609631 21.7644 0.612116 21.7663 0.614606 21.7682L12.4308 30.8058C13.357 31.5142 14.643 31.5144 15.5694 30.8061L27.3811 21.7754C28.0726 21.2466 28.2046 20.2574 27.6759 19.5658C27.6736 19.5629 27.6713 19.5599 27.6691 19.557C27.1381 18.8726 26.1528 18.7482 25.4684 19.2792C25.4634 19.2831 25.4585 19.2869 25.4535 19.2909L15.5933 27.1329C14.6521 27.8814 13.3189 27.8815 12.3776 27.1332Z" fill="#6337BE"/>
</svg>
