
<svg version="1.0" xmlns="http://www.w3.org/2000/svg"
 width="150px" height="50px" viewBox="0 0 1080 355"
 preserveAspectRatio="xMidYMid meet">
  <g transform="translate(0.000000,355.000000) scale(0.100000,-0.100000)"
  fill="#3a6ad6" stroke="none">
    <path d="M5176 3503 c-43 -136 -88 -314 -83 -328 5 -13 33 -15 185 -15 132 0
    182 3 190 13 5 6 22 55 36 107 15 52 37 127 48 167 11 39 18 79 15 87 -6 14
    -33 16 -191 16 l-184 0 -16 -47z"/>
    <path d="M5556 3275 c-15 -52 -24 -99 -21 -105 3 -6 50 -10 105 -10 l99 0 16
    58 c9 31 21 70 26 86 21 65 20 66 -95 66 l-103 0 -27 -95z"/>
    <path d="M5052 3063 c-13 -35 -42 -150 -42 -169 0 -11 20 -14 100 -14 85 0
    101 3 109 18 8 16 51 171 51 186 0 3 -47 6 -104 6 l-104 0 -10 -27z"/>
    <path d="M5325 3078 c-30 -97 -95 -336 -95 -353 0 -14 22 -15 193 -13 l192 3
    12 45 c6 25 27 101 47 170 20 68 36 132 36 142 0 17 -14 18 -190 18 -144 0
    -192 -3 -195 -12z"/>
    <path d="M6124 2176 c-46 -20 -74 -62 -74 -108 0 -56 26 -95 77 -114 78 -30
    158 6 184 83 21 64 -39 140 -117 149 -22 2 -53 -2 -70 -10z"/>
    <path d="M4840 1930 c0 -99 -3 -180 -6 -180 -3 0 -14 10 -24 23 -35 44 -117
    80 -194 85 -134 8 -246 -59 -308 -186 -32 -65 -33 -70 -33 -197 0 -117 2 -136
    25 -185 39 -88 86 -137 167 -176 109 -54 255 -33 330 47 16 16 31 29 35 29 4
    0 8 -21 10 -47 l3 -48 110 0 110 0 0 505 0 505 -112 3 -113 3 0 -181z m-86
    -284 c14 -8 37 -32 53 -52 39 -52 45 -153 13 -218 -33 -70 -70 -91 -157 -91
    -66 0 -74 2 -103 30 -40 37 -56 68 -65 123 -16 95 38 197 118 221 43 14 111 7
    141 -13z"/>
    <path d="M2195 2038 c-3 -7 -4 -222 -3 -478 l3 -465 110 0 110 0 5 290 c4 225
    8 284 16 265 24 -52 204 -538 204 -549 0 -16 175 -15 187 2 10 13 23 48 123
    316 81 217 92 243 97 237 3 -3 4 -108 4 -234 -1 -127 1 -253 5 -281 l7 -51
    108 0 109 0 0 480 0 480 -134 0 c-131 0 -135 -1 -142 -22 -3 -13 -15 -41 -25
    -63 -9 -22 -32 -76 -49 -120 -17 -44 -36 -91 -41 -105 -6 -14 -39 -96 -74
    -184 -35 -87 -67 -161 -70 -164 -11 -11 -23 15 -100 208 -43 107 -88 218 -100
    245 -12 28 -32 79 -45 115 -13 36 -30 71 -36 78 -9 8 -51 12 -139 12 -91 0
    -127 -3 -130 -12z"/>
    <path d="M5200 1960 l0 -90 125 0 125 0 0 -344 c0 -189 3 -364 6 -390 l7 -46
    108 0 109 0 0 390 0 390 131 0 130 0 -2 90 -2 90 -368 0 -369 0 0 -90z"/>
    <path d="M3678 1845 c-126 -34 -220 -132 -248 -256 -18 -82 -9 -232 18 -289
    61 -130 166 -203 314 -217 108 -10 225 28 296 96 35 34 102 133 102 151 0 6
    -42 10 -117 10 l-118 0 -25 -30 c-42 -51 -146 -63 -196 -22 -33 27 -64 78 -64
    106 l0 26 265 0 265 0 6 25 c10 40 -14 171 -40 223 -44 85 -109 140 -203 171
    -72 24 -181 27 -255 6z m201 -179 c49 -26 87 -108 55 -120 -9 -3 -76 -6 -150
    -6 -148 0 -158 4 -131 57 16 31 53 67 77 76 31 11 122 7 149 -7z"/>
    <path d="M6832 1841 c-29 -10 -68 -33 -86 -50 -18 -17 -35 -28 -39 -25 -4 4
    -7 25 -7 46 l0 39 -112 -3 -113 -3 0 -375 0 -375 113 -3 112 -3 0 229 c0 216
    1 230 23 272 26 54 63 74 133 74 38 0 61 -6 88 -24 60 -42 66 -70 66 -326 l0
    -225 108 3 107 3 5 240 c4 214 7 243 24 268 41 60 130 81 201 47 76 -37 80
    -49 83 -322 l4 -238 109 0 109 0 0 256 c0 316 -5 341 -89 424 -45 45 -68 59
    -118 74 -117 35 -236 4 -320 -84 l-39 -42 -30 34 c-86 98 -210 131 -332 89z"/>
    <path d="M8154 1845 c-148 -47 -229 -141 -255 -298 -38 -225 81 -413 291 -458
    184 -39 384 66 434 229 7 22 7 22 -106 22 l-114 0 -33 -34 c-81 -83 -233 -39
    -248 73 l-6 41 264 2 264 3 -2 95 c-1 86 -4 100 -32 152 -27 47 -66 90 -128
    138 -6 5 -39 18 -72 30 -70 23 -191 26 -257 5z m206 -182 c34 -20 64 -71 59
    -98 -4 -19 -14 -20 -152 -23 -143 -2 -147 -2 -147 18 0 37 23 70 70 103 33 23
    132 23 170 0z"/>
    <path d="M6070 1470 l0 -380 110 0 110 0 0 380 0 380 -110 0 -110 0 0 -380z"/>
  </g>
</svg>
